<svg width="30" height="40" viewBox="0 0 30 40" fill="none" xmlns="http://www.w3.org/2000/svg">
<path d="M4.34978 23.0236C2.83254 29.6884 0.515299 31.3215 0.118057 31.7573C-0.654357 32.6015 2.58978 32.5298 3.29047 32.0994C5.71806 30.6208 6.88219 28.6677 8.3553 24.5518C10.2532 19.2608 10.4629 13.0318 10.656 8.4139C10.7443 6.32838 8.09047 6.16838 8.09047 6.16838C7.05875 5.94217 1.87806 5.07045 4.1622 8.15459C5.04495 9.34631 5.69047 13.0153 5.35392 16.0001C5.35392 16.0001 5.33185 18.7256 4.34978 23.018V23.0236Z" fill="white"/>
<path d="M16.3608 6.21803C19.0366 8.31458 19.8477 10.4608 19.7153 15.8567C19.9911 22.3229 19.2077 34.4001 14.5566 22.7367C14.0104 19.8732 15.2849 13.3518 15.3456 10.8304C15.3897 9.03734 14.6725 7.36562 14.4518 6.5601C14.4518 6.5601 14.5677 4.97665 16.3663 6.21803H16.3608Z" fill="white"/>
<path d="M28.7358 22.1849C28.8738 16.9601 29.0227 13.5008 29.9882 3.40976C30.0324 2.96287 29.8117 2.56563 29.5193 2.22907C28.6586 1.25804 24.1179 -0.915753 22.3413 0.424937C21.7951 0.83873 22.1427 1.95321 22.4517 2.52701C23.2296 3.82356 24.2062 8.73942 24.4489 11.1008C24.951 16.2374 24.6531 25.5891 23.042 31.5698C22.9703 31.8291 22.9758 32.1049 23.0475 32.3587C24.6972 37.9918 26.0213 42.8856 28.962 34.8194C29.0282 34.6373 29.0669 34.4498 29.0282 34.2622C28.0682 29.578 28.6917 23.9174 28.7358 22.1905V22.1849Z" fill="white"/>
</svg>
